<svg width="40" height="40" viewBox="0 0 40 40" fill="#0431CC" xmlns="http://www.w3.org/2000/svg"><g id="Logo"><g id="Skyreve"><path d="M14.0818 13.6288C14.1843 13.6056 14.2873 13.5823 14.3904 13.56C14.4952 13.7347 14.6 13.9084 14.7042 14.0809C14.7726 14.1941 14.8406 14.3069 14.9082 14.4191C14.6249 14.5045 14.3447 14.5623 14.0431 14.5959C13.9791 14.2912 13.9121 13.9865 13.8451 13.6818C13.9235 13.6646 14.0025 13.6467 14.0818 13.6288Z" fill="#0431CC"></path><path d="M14.0204 13.0551C13.9211 13.0781 13.8232 13.1007 13.7233 13.1213C13.6897 12.9644 13.6555 12.8075 13.6212 12.6505C13.5869 12.4936 13.5527 12.3367 13.5192 12.1798C13.7111 12.4601 13.8969 12.7496 14.0766 13.042C14.0578 13.0464 14.0391 13.0507 14.0204 13.0551Z" fill="#0431CC"></path><path d="M14.2046 15.3575C14.5884 15.3088 14.957 15.2296 15.3286 15.0986L15.3256 15.1016C15.4139 15.2387 15.4992 15.3728 15.5845 15.5099C15.1519 15.5891 14.7224 15.6957 14.299 15.8267C14.2947 15.8048 14.2904 15.7829 14.2861 15.7609C14.2599 15.6268 14.2333 15.491 14.2046 15.3575Z" fill="#0431CC"></path><path d="M15.9188 16.0279C15.9191 16.0279 15.9193 16.0278 15.9196 16.0278L15.9165 16.0247C15.9173 16.0258 15.9181 16.0269 15.9188 16.0279Z" fill="#0431CC"></path><path d="M15.9188 16.0279C15.4104 16.1132 14.9049 16.235 14.4117 16.3903C14.4434 16.5516 14.4729 16.7152 14.502 16.8771C14.5064 16.9018 14.5108 16.9264 14.5153 16.9509C15.0057 16.6767 15.4962 16.4025 15.9836 16.1283C15.9776 16.119 15.9717 16.1095 15.9658 16.0999C15.9509 16.0759 15.9355 16.0512 15.9188 16.0279Z" fill="#0431CC"></path><path d="M36.57 20.9208C36.5639 20.9725 36.5578 21.0213 36.5517 21.07L36.5456 21.0731C38.6566 22.0633 40 24.1594 40 26.5236C40 29.8445 37.298 32.5469 33.9776 32.5469H25.7711L25.5335 31.0388C25.7966 30.8783 26.0678 30.7196 26.3418 30.5592C27.644 29.797 29.0097 28.9977 29.8804 27.7971C30.6097 26.796 29.3382 26.1715 28.406 25.7137C28.1467 25.5864 27.9137 25.4719 27.7572 25.3659H27.7542C27.7467 25.3601 27.7391 25.3544 27.7315 25.3486C27.4522 25.1357 27.1176 24.8807 27.346 24.5189C27.4625 24.3308 27.6312 24.1632 27.7958 23.9997C27.8765 23.9196 27.9562 23.8404 28.0283 23.7603C28.4182 23.3246 28.8234 22.8463 29.0488 22.3039C29.4394 21.3673 28.2658 21.0956 27.4718 20.9118C27.2999 20.872 27.1458 20.8363 27.0292 20.7989C26.7459 20.7075 25.3172 20.2353 25.5853 19.7752C25.7088 19.5643 25.8403 19.3752 25.969 19.1901C26.24 18.8003 26.4987 18.4282 26.6453 17.9076C27.0383 16.5061 25.6127 16.3903 24.6501 16.4604C24.5526 16.4696 23.8245 16.5031 23.8245 16.4178C23.8202 16.2584 23.894 16.0677 23.9609 15.895C23.9874 15.8268 24.0127 15.7614 24.0317 15.7018C24.0626 15.6025 24.1021 15.4974 24.1429 15.3889C24.3111 14.9412 24.5014 14.435 24.2023 14.0353C23.6599 13.3087 22.3364 13.9744 21.4698 14.4103C21.2607 14.5155 21.0783 14.6072 20.9398 14.6629C20.1655 14.9726 20.0046 14.391 19.8433 13.8075C19.7856 13.599 19.7279 13.3902 19.6421 13.2218C19.4075 12.7587 19.0724 12.3687 18.5393 12.5942C17.4914 13.036 16.9462 14.5258 16.6202 15.6927C16.3954 15.3452 16.175 14.9935 15.9552 14.6429C15.9128 14.5754 15.8705 14.5079 15.8282 14.4405C15.633 14.1292 15.4403 13.8095 15.2461 13.4874C14.5888 12.3968 13.9142 11.2775 13.0653 10.3579C12.7881 10.0563 12.3403 10.3671 12.4134 10.7296C12.5887 11.5904 12.7778 12.4491 12.9669 13.3082C13.0997 13.9116 13.2326 14.5152 13.3608 15.1199C13.5222 15.8876 13.6837 16.6615 13.8116 17.4384C13.1079 17.9624 12.5169 18.6083 11.9382 19.2786C11.0517 20.3023 10.2201 21.3595 9.41589 22.4471C9.24419 22.6684 9.06456 22.8838 8.88508 23.0992C8.33534 23.7586 7.78701 24.4164 7.47239 25.2318C7.08552 26.2281 7.53027 27.2578 8.17607 28.0256C9.6474 29.7744 12.3342 29.0919 14.1619 28.4735L14.692 28.2815C14.6653 28.5432 14.6791 28.8547 14.691 29.122C14.6994 29.3122 14.7069 29.4801 14.698 29.5916C14.6219 30.6 14.3599 31.5811 14.0705 32.5438H7.98416C3.58236 32.5438 0 28.9609 0 24.5585C0 21.6367 1.5749 18.9983 4.13373 17.5846C4.08194 17.1672 4.05757 16.7895 4.05757 16.4208C4.05757 10.7022 8.70916 6.04688 14.4269 6.04688C17.9819 6.04688 21.2931 7.88707 23.1879 10.882C24.4307 10.3153 25.7528 10.0289 27.1206 10.0289C32.3875 10.0289 36.6735 14.3125 36.6735 19.5802C36.6735 19.9946 36.64 20.4272 36.57 20.9208Z" fill="#0431CC"></path><path d="M16.8121 21.3777C16.8121 21.8825 16.403 22.2917 15.8983 22.2917C15.3935 22.2917 14.9844 21.8825 14.9844 21.3777C14.9844 20.873 15.3935 20.4637 15.8983 20.4637C16.403 20.4637 16.8121 20.873 16.8121 21.3777Z" fill="#0431CC"></path></g></g></svg>